<svg xmlns="http://www.w3.org/2000/svg" width="29" height="29" viewBox="0 0 29 29"><g data-name="Group 538"><path data-name="Path 21" d="M12.838 15.981v-4.088l3.928 2.051-3.927 2.037zm8.628-4.797a3.14 3.14 0 0 0-.578-1.443 2.084 2.084 0 0 0-1.458-.617c-2.035-.147-5.089-.147-5.089-.147h-.003s-3.054 0-5.089.147a2.081 2.081 0 0 0-1.459.617 3.14 3.14 0 0 0-.579 1.443 22.057 22.057 0 0 0-.145 2.355v1.1a22.035 22.035 0 0 0 .145 2.365 3.147 3.147 0 0 0 .578 1.443 2.468 2.468 0 0 0 1.6.622c1.164.112 4.947.145 4.947.145s3.057 0 5.092-.151a2.081 2.081 0 0 0 1.459-.617 3.146 3.146 0 0 0 .578-1.444 21.991 21.991 0 0 0 .145-2.355v-1.1a22.036 22.036 0 0 0-.144-2.363" fill="#ffd400"/><g data-name="Ellipse 9" transform="rotate(180 14.5 14.5)" fill="none" stroke="#ffd400" stroke-width="2"><circle cx="14.5" cy="14.5" r="14.5" stroke="none"/><circle cx="14.5" cy="14.5" r="13.5"/></g></g></svg>