<?xml version="1.0" encoding="UTF-8"?>
<svg width="64px" height="64px" viewBox="0 0 64 64" version="1.1" xmlns="http://www.w3.org/2000/svg" xmlns:xlink="http://www.w3.org/1999/xlink">
    <title>logo-round-white</title>
    <g id="Page-1" stroke="none" stroke-width="1" fill="none" fill-rule="evenodd">
        <g id="logo-round-white" transform="translate(1.000000, 1.000000)">
            <circle id="Oval" stroke="#313133" stroke-width="2" cx="30.819" cy="30.819" r="30.819"></circle>
            <g id="Group" transform="translate(7.800000, 8.154000)" fill="#313133" fill-rule="nonzero">
                <polygon id="Path" points="40.308 21.514 40.315 21.604 40.345 21.575"></polygon>
                <path d="M23.228,5.833 C27.8452802,5.83187048 32.2667846,7.69799855 35.487,11.007 L39.487,6.965 C31.036309,-1.62933538 17.361833,-2.17775878 8.25002817,5.71222173 C-0.861776651,13.6022022 -2.27430852,27.2145795 5.02334377,36.8073398 C12.3209961,46.4001002 25.8167255,48.67108 35.852,41.995 C35.8863442,42.0002496 35.9199234,42.0096518 35.952,42.023 C37.675,40.882 38.435,40.323 38.435,40.323 L31.421,27.998 C34.7363333,26.9313333 36.3936667,24.4453333 36.393,20.54 C36.393,15.3513333 33.2406667,12.757 26.936,12.757 L15.153,12.757 L15.153,33.173 C16.7525382,34.4583756 18.5864918,35.4208616 20.553,36.007 L20.553,28.614 L25.489,28.614 L31.027,38.245 C24.7041714,41.4793357 17.041759,40.4803327 11.7595613,35.7329675 C6.47736354,30.9856024 4.66913757,23.4728872 7.21270564,16.8419483 C9.75627372,10.2110095 16.1249525,5.83488085 23.227,5.838 L23.228,5.833 Z M28.123,23.565 L20.558,23.565 L20.558,17.823 L28.178,17.823 C30.3153333,17.895 31.4153333,18.8196667 31.478,20.597 C31.4146667,22.5423333 30.296,23.5333333 28.122,23.57 L28.123,23.565 Z" id="Shape"></path>
            </g>
        </g>
    </g>
</svg>