<svg xmlns="http://www.w3.org/2000/svg" width="29" height="29" viewBox="0 0 29 29"><g data-name="Group 542"><g data-name="Group 540"><g data-name="Group 10"><g data-name="Group 37"><path data-name="Path 131" d="M21.352 11.255a5.733 5.733 0 0 1-1.584.434 2.734 2.734 0 0 0 1.21-1.52 5.5 5.5 0 0 1-1.744.666 2.75 2.75 0 0 0-4.757 1.88 2.832 2.832 0 0 0 .064.627 7.783 7.783 0 0 1-5.668-2.877 2.751 2.751 0 0 0 .845 3.675 2.716 2.716 0 0 1-1.242-.339v.03a2.762 2.762 0 0 0 2.2 2.7 2.745 2.745 0 0 1-.721.091 2.431 2.431 0 0 1-.521-.047 2.776 2.776 0 0 0 2.569 1.916 5.525 5.525 0 0 1-3.406 1.174 5.15 5.15 0 0 1-.658-.036 7.741 7.741 0 0 0 4.218 1.236 7.773 7.773 0 0 0 7.827-7.825c0-.122 0-.239-.01-.355a5.486 5.486 0 0 0 1.378-1.43z" fill="#313133"/></g></g><g data-name="Ellipse 8" transform="rotate(180 14.5 14.5)" fill="none" stroke="#313133" stroke-width="2"><circle cx="14.5" cy="14.5" r="14.5" stroke="none"/><circle cx="14.5" cy="14.5" r="13.5"/></g></g></g></svg>