<svg xmlns="http://www.w3.org/2000/svg" width="29" height="29" viewBox="0 0 29 29"><g data-name="Group 537"><g data-name="Group 10"><g data-name="Group 37"><path data-name="Path 131" d="M21.25 10.857a5.629 5.629 0 0 1-1.556.426 2.685 2.685 0 0 0 1.187-1.493 5.4 5.4 0 0 1-1.712.654A2.7 2.7 0 0 0 14.5 12.29a2.78 2.78 0 0 0 .063.616 7.642 7.642 0 0 1-5.565-2.824 2.7 2.7 0 0 0 .83 3.608 2.666 2.666 0 0 1-1.22-.333v.03a2.712 2.712 0 0 0 2.163 2.653 2.7 2.7 0 0 1-.708.089 2.387 2.387 0 0 1-.511-.046 2.726 2.726 0 0 0 2.523 1.881 5.425 5.425 0 0 1-3.348 1.152 5.056 5.056 0 0 1-.646-.038 7.6 7.6 0 0 0 4.142 1.212 7.631 7.631 0 0 0 7.684-7.683c0-.119 0-.235-.01-.349a5.386 5.386 0 0 0 1.353-1.401z" fill="#ffd400"/></g></g><g data-name="Ellipse 8" transform="rotate(180 14.5 14.5)" fill="none" stroke="#ffd400" stroke-width="2"><circle cx="14.5" cy="14.5" r="14.5" stroke="none"/><circle cx="14.5" cy="14.5" r="13.5"/></g></g></svg>