<svg xmlns="http://www.w3.org/2000/svg" width="61.639" height="61.639" viewBox="0 0 61.639 61.639">
  <g id="Group_65" data-name="Group 65" transform="translate(-221.2 -292.846)">
    <circle id="Ellipse_22" data-name="Ellipse 22" cx="30.819" cy="30.819" r="30.819" transform="translate(221.2 292.846)" fill="#d9dadb"/>
    <g id="Group_64" data-name="Group 64" transform="translate(229.39 301.146)">
      <path id="Path_144" data-name="Path 144" d="M249.988,310.6l.007.09.03-.029Z" transform="translate(-210.07 -289.232)" fill="#313133"/>
      <path id="Path_145" data-name="Path 145" d="M248.939,303.5a17.1,17.1,0,0,1,12.259,5.174l4-4.042a22.84,22.84,0,1,0-3.635,35.03.429.429,0,0,1,.1.028c1.723-1.141,2.483-1.7,2.483-1.7l-7.014-12.325q4.973-1.6,4.972-7.458,0-7.783-9.457-7.783H240.864V330.84a15.847,15.847,0,0,0,5.4,2.834v-7.393H251.2l5.538,9.631a17.144,17.144,0,1,1-7.8-32.407Zm4.895,17.732h-7.565V315.49h7.62q3.206.108,3.3,2.774Q257.094,321.182,253.833,321.237Z" transform="translate(-226.101 -297.813)" fill="#313133"/>
    </g>
  </g>
</svg>
