<svg xmlns="http://www.w3.org/2000/svg" width="63.639" height="63.639" viewBox="0 0 63.639 63.639"><g data-name="Group 65" transform="translate(-220.2 -291.846)"><circle data-name="Ellipse 22" cx="30.819" cy="30.819" r="30.819" transform="translate(221.2 292.846)" fill="none" stroke="#313133" stroke-width="2"/><g data-name="Group 64" fill="#313133"><path data-name="Path 144" d="M269.308 322.514l.007.09.03-.029z"/><path data-name="Path 145" d="M252.228 306.833a17.1 17.1 0 0 1 12.259 5.174l4-4.042a22.84 22.84 0 1 0-3.635 35.03.429.429 0 0 1 .1.028c1.723-1.141 2.483-1.7 2.483-1.7l-7.014-12.325q4.973-1.6 4.972-7.458 0-7.783-9.457-7.783h-11.783v20.416a15.847 15.847 0 0 0 5.4 2.834v-7.393h4.936l5.538 9.631a17.144 17.144 0 1 1-7.8-32.407zm4.895 17.732h-7.565v-5.742h7.62q3.206.108 3.3 2.774-.095 2.918-3.356 2.973z"/></g></g></svg>