<svg xmlns="http://www.w3.org/2000/svg" width="29" height="29" viewBox="0 0 29 29">
  <g id="Group_542" data-name="Group 542" transform="translate(-1235 -8288.442)">
    <g id="Group_540" data-name="Group 540">
      <g id="Group_10" data-name="Group 10" transform="translate(1242.939 8298.407)">
        <g id="Group_37" data-name="Group 37" transform="translate(0 0)">
          <path id="Path_131" data-name="Path 131" d="M13.413,49.29a5.733,5.733,0,0,1-1.584.434,2.734,2.734,0,0,0,1.21-1.52,5.5,5.5,0,0,1-1.744.666,2.75,2.75,0,0,0-4.757,1.88,2.832,2.832,0,0,0,.064.627A7.783,7.783,0,0,1,.934,48.5a2.751,2.751,0,0,0,.845,3.675,2.716,2.716,0,0,1-1.242-.339v.03a2.762,2.762,0,0,0,2.2,2.7,2.745,2.745,0,0,1-.721.091,2.431,2.431,0,0,1-.521-.047,2.776,2.776,0,0,0,2.569,1.916A5.525,5.525,0,0,1,.658,57.7,5.15,5.15,0,0,1,0,57.664,7.741,7.741,0,0,0,4.218,58.9a7.773,7.773,0,0,0,7.827-7.825c0-.122,0-.239-.01-.355A5.486,5.486,0,0,0,13.413,49.29Z" transform="translate(0 -48)" fill="#313133"/>
        </g>
      </g>
      <g id="Ellipse_8" data-name="Ellipse 8" transform="translate(1264 8317.442) rotate(180)" fill="none" stroke="#313133" stroke-width="2">
        <circle cx="14.5" cy="14.5" r="14.5" stroke="none"/>
        <circle cx="14.5" cy="14.5" r="13.5" fill="none"/>
      </g>
    </g>
  </g>
</svg>
